<svg width="84" height="88" viewBox="0 0 84 88" fill="none" xmlns="http://www.w3.org/2000/svg">
<path d="M84 44C84 68.3005 65.196 88 42 88C18.804 88 0 68.3005 0 44C0 19.6995 18.804 0 42 0C65.196 0 84 19.6995 84 44Z" fill="black" fill-opacity="0.24"/>
<path d="M84 44C84 68.3005 65.196 88 42 88C18.804 88 0 68.3005 0 44C0 19.6995 18.804 0 42 0C65.196 0 84 19.6995 84 44Z" fill="black" fill-opacity="0.2"/>
<path d="M84 44C84 68.3005 65.196 88 42 88C18.804 88 0 68.3005 0 44C0 19.6995 18.804 0 42 0C65.196 0 84 19.6995 84 44Z" fill="black" fill-opacity="0.2"/>
</svg>
